<svg width="512" height="512" viewBox="0 0 512 512" fill="none" xmlns="http://www.w3.org/2000/svg">
<path d="M377.316 500.448C321.797 500.448 268.419 500.432 215.057 500.496C211.934 500.496 210.26 499.37 208.892 496.601C205.334 489.454 201.101 482.629 197.817 475.353C195.306 469.783 192.103 467.562 185.648 467.594C134.684 467.9 83.721 467.771 32.7415 467.755C10.608 467.755 0.144916 457.437 0.0644305 435.416C-0.0160549 414.232 0.321984 393.032 0.0161393 371.848C-0.257511 352.371 13.3606 343.856 29.0392 343.823C56.6618 343.759 84.3005 343.823 111.923 343.759C114.161 343.759 117.219 345.127 118.491 342.68C119.682 340.379 117.219 338.318 116.108 336.258C98.9488 304.643 81.741 273.044 64.6137 241.414C49.7561 213.952 35.0756 186.394 20.0731 159.013C17.6585 154.602 18.1093 151.383 20.6204 147.246C41.611 112.637 62.3762 77.8995 83.222 43.2103C87.5843 35.9505 92.0915 28.7712 97.2908 20.3041C189.72 181.098 282.118 340.62 377.3 500.464L377.316 500.448Z" fill="#5355A4"/>
<path d="M153.92 11C161.615 11 169.293 11 176.988 11C222.317 11.0644 267.646 10.9195 312.976 11.3059C333.338 11.4829 353.573 12.98 373.452 18.5013C393.751 24.1352 412.343 33.1657 429.245 45.3029C450.026 60.2249 469.745 76.5795 485.005 97.4575C495.822 112.235 504.257 128.219 508.41 146.296C515.155 175.721 509.988 205.549 511.678 235.136C512 240.899 510.825 246.13 508.362 251.394C503.791 261.213 495.839 266.268 485.649 266.461C459.91 266.96 434.155 266.831 408.399 266.573C393.847 266.429 383.239 255.322 382.901 240.126C382.596 226.459 382.29 212.745 382.934 199.094C384.431 167.818 364.438 141.805 330.924 136.686C325.387 135.833 319.736 135.27 314.135 135.237C287.043 135.076 259.952 134.851 232.861 135.35C225.327 135.495 221.094 132.952 217.617 126.593C205.222 103.945 192.537 81.457 179.788 59.0015C172.175 45.5766 164.19 32.3608 156.448 19.0164C155.128 16.7467 153.598 14.477 153.92 10.9839V11Z" fill="#9CCC54"/>
<path d="M409.14 377.209C422.549 377.209 435.957 376.758 449.334 377.305C494.873 379.173 523.268 422.136 504.338 466.065C495.388 486.83 477.423 499.659 453.117 500.384C427.442 501.156 427.732 500.786 415.627 478.17C401.944 452.575 387.232 427.528 372.937 402.272C369.396 396.026 365.822 389.797 362.056 383.696C359.207 379.076 359.754 377.064 365.694 377.144C380.165 377.354 394.636 377.209 409.107 377.225L409.14 377.209Z" fill="#9CCC54"/>
</svg>
